<?xml version="1.0" encoding="utf-8" ?>	<!-- Generator: Assembly 1.8 - http://assemblyapp.co -->	<svg version="1.1" xmlns="http://www.w3.org/2000/svg" xmlns:xlink="http://www.w3.org/1999/xlink" width="2048.00" height="2048.00" viewBox="0 0 2048.0 2048.0">			<g id="document" transform="matrix(1,0,0,1,1024.0,1024.0)">			<g>				<path d="M472.019,1015.34 L472.019,543.325 C472.019,282.472 260.853,71.3059 1.04449e-05,71.3059 C-260.853,71.3059 -472.019,282.472 -472.019,543.325 L-472.019,1015.34 L472.019,1015.34 L472.019,1015.34 Z " fill="#00b4ce" fill-opacity="1.00" />				<path d="M-200.714,137.734 L2.01387e-06,338.447 L200.714,137.734 L-200.714,137.734 Z " fill="#005f6c" fill-opacity="1.00" />				<path d="M557.645,-227.465 C557.645,-271.355 536.797,-310.855 503.88,-331.703 C503.88,-334.995 503.88,-338.286 503.88,-343.773 C503.88,-578.582 293.21,-861.671 9.02397,-861.671 C-275.162,-861.671 -485.832,-546.762 -485.832,-344.87 C-485.832,-341.578 -485.832,-338.286 -485.832,-332.8 C-518.75,-310.855 -539.597,-272.452 -539.597,-227.465 C-539.597,-163.825 -495.707,-110.06 -439.748,-106.768 C-361.844,73.1795 -195.063,191.682 9.02397,191.682 C212.014,191.682 379.892,73.1795 457.796,-107.865 C513.755,-112.254 557.645,-163.825 557.645,-227.465 Z " fill="#008c9f" fill-opacity="1.00" />				<path d="M-293.666,-1015.34 C-293.666,-1015.34 -235.019,-968.567 -219.659,-913.411 C-230.132,-915.506 -242.001,-916.902 -254.568,-918.298 C-501.721,-934.356 -643.701,-540.246 -477.536,-288.206 C-477.536,-288.206 -452.151,-511.15 -293.666,-621.461 C-246.888,-652.879 -196.968,-680.222 -164.852,-676.731 C-132.736,-673.24 -46.0116,-677.743 -18.7829,-731.502 C8.44582,-785.959 -87.0067,-981.134 -293.666,-1015.34 Z " fill="#00dffe" fill-opacity="1.00" />				<path d="M-200.714,-708.14 C-102.012,-883.001 -123.413,-975.004 158.928,-975.004 C441.27,-975.004 646.732,-528.408 480.567,-276.368 C480.567,-276.368 413.921,-558.967 255.436,-669.278 C208.658,-700.696 11.4169,-672.769 -20.699,-669.278 C-52.8149,-665.787 -173.485,-654.381 -200.714,-708.14 Z " fill="#00dffe" fill-opacity="1.00" />				<path d="M5.88867e-06,48.6253 C-29.5049,48.6253 -57.4041,38.9911 -77.4755,30.7618 C-89.9197,36.9839 -100.357,40.5968 -100.357,40.5968 C-100.357,40.5968 -53.5905,71.306 5.88867e-06,71.306 C53.5906,71.306 100.357,42.2025 100.357,42.2025 C100.357,42.2025 88.9162,38.1882 75.6691,31.3639 C55.9991,39.5932 28.7021,48.6253 5.88867e-06,48.6253 Z " fill="#00dffe" fill-opacity="1.00" />				<path d="M-376.241,1015.34 L376.241,1015.34 L376.241,865.368 L-376.241,865.368 L-376.241,1015.34 Z " fill="#005f6c" fill-opacity="1.00" />				<path d="M372.919,285.164 C301.148,303.236 257.302,376.594 275.374,448.365 L373.693,838.826 C391.765,910.596 465.123,954.442 536.894,936.37 C608.664,918.298 652.51,844.94 634.438,773.169 L536.12,382.709 C518.048,310.938 444.69,267.092 372.919,285.164 Z " fill="#00b4ce" fill-opacity="1.00" />				<path d="M-372.919,285.081 C-301.148,303.153 -257.302,376.511 -275.374,448.282 L-373.693,838.743 C-391.765,910.513 -465.123,954.359 -536.894,936.287 C-608.664,918.215 -652.51,844.857 -634.438,773.086 L-536.12,382.626 C-518.048,310.855 -444.69,267.009 -372.919,285.081 Z " fill="#00b4ce" fill-opacity="1.00" />				<path d="M472.019,940.356 L472.019,839.999 C472.019,784.539 427.123,739.642 371.662,739.642 C316.202,739.642 271.305,784.539 271.305,839.999 L271.305,940.356 L472.019,940.356 L472.019,940.356 Z " fill="#008c9f" fill-opacity="1.00" />				<path d="M-472.019,940.356 L-472.019,839.999 C-472.019,784.539 -427.123,739.642 -371.662,739.642 C-316.202,739.642 -271.305,784.539 -271.305,839.999 L-271.305,940.356 L-472.019,940.356 L-472.019,940.356 Z " fill="#008c9f" fill-opacity="1.00" />				<path d="M-377.398,940.356 L377.398,940.356 L472.019,468.337 L-472.019,468.337 L-377.398,940.356 Z " fill="#005f6c" fill-opacity="1.00" />				<path d="M-195.434,-31.5434 C-109.498,-31.5434 -38.3775,-96.7368 -28.7467,-181.192 L42.3734,-181.192 C52.0042,-95.9959 122.383,-31.5434 209.061,-31.5434 C301.665,-31.5434 377.23,-105.627 377.23,-199.713 C377.23,-293.799 302.406,-330.84 209.061,-330.84 C123.124,-330.84 52.0042,-302.689 42.3734,-218.233 L-28.7467,-218.233 C-38.3775,-303.429 -108.757,-330.84 -195.434,-330.84 C-287.298,-330.84 -363.604,-293.799 -363.604,-199.713 C-363.604,-105.627 -288.779,-31.5434 -195.434,-31.5434 Z M207.579,-296.644 C278.699,-296.644 338.707,-273.055 338.707,-199.713 C338.707,-126.37 280.922,-68.5851 207.579,-68.5851 C134.237,-68.5851 76.4517,-127.111 76.4517,-199.713 C76.4517,-272.314 136.459,-296.644 207.579,-296.644 Z M-195.434,-296.644 C-124.314,-296.644 -64.3067,-273.055 -64.3067,-199.713 C-64.3067,-126.37 -122.092,-68.5851 -195.434,-68.5851 C-266.554,-68.5851 -326.562,-127.111 -326.562,-199.713 C-326.562,-272.314 -268.036,-296.644 -195.434,-296.644 Z " fill="#00dffe" fill-opacity="1.00" />				<path d="M433.89,431.735 L-441.122,431.735 L-472.019,468.337 L471.972,468.337 L433.89,431.735 Z " fill="#00b4ce" fill-opacity="1.00" />			</g>		</g>	</svg>