<?xml version="1.0" encoding="utf-8" ?>	<!-- Generator: Assembly 1.8 - http://assemblyapp.co -->	<svg version="1.1" xmlns="http://www.w3.org/2000/svg" xmlns:xlink="http://www.w3.org/1999/xlink" width="2048.00" height="2048.00" viewBox="0 0 2048.0 2048.0">				<g id="document" transform="matrix(1,0,0,1,1024.0,1024.0)">			<g>				<path d="M-298.904,58.1697 L774.843,58.1697 L774.843,-800.333 L-298.904,-800.333 L-298.904,58.1697 Z " fill="#008c9f" fill-opacity="1.00" />				<path d="M-299.131,-745.493 L774.921,-745.493 L774.921,-800.333 L-299.131,-800.333 L-299.131,-745.493 Z " fill="#005f6c" fill-opacity="1.00" />				<path d="M-186.547,-590.845 L-186.547,-315.695 L88.6025,-315.695 L88.6024,-590.845 L-186.547,-590.845 Z M-48.9725,-370.836 C-94.6451,-370.836 -131.406,-407.597 -131.406,-453.27 C-131.406,-498.943 -94.6452,-535.703 -48.9725,-535.703 C-3.29985,-535.703 33.4611,-498.943 33.4611,-453.27 C33.4611,-407.597 -3.29984,-370.836 -48.9725,-370.836 Z " fill="#005f6c" fill-opacity="1.00" />				<path d="M-164.181,-174.636 C104.308,-174.636 375.238,-174.636 643.726,-174.636 M643.726,-254.369 C375.237,-254.369 104.308,-254.369 -164.181,-254.369 " fill="none" stroke-width="60.28" stroke="#005f6c" stroke-linecap="square" stroke-linejoin="miter" />				<path d="M144.866,-338.062 M144.866,-338.062 C413.355,-338.062 375.237,-338.062 643.726,-338.062 M643.726,-417.795 M643.726,-417.795 C375.237,-417.795 413.355,-417.795 144.866,-417.795 " fill="none" stroke-width="60.28" stroke="#005f6c" stroke-linecap="square" stroke-linejoin="miter" />				<path d="M732.214,-763.357 C737.494,-758.077 746.044,-758.077 751.325,-763.357 C756.605,-768.638 756.605,-777.188 751.325,-782.468 C746.044,-787.749 737.494,-787.749 732.214,-782.468 C726.933,-777.188 726.933,-768.638 732.214,-763.357 Z " fill="#00b4ce" fill-opacity="1.00" />				<path d="M693.967,-763.357 C699.248,-758.077 707.797,-758.077 713.078,-763.357 C718.359,-768.638 718.359,-777.188 713.078,-782.468 C707.797,-787.749 699.248,-787.749 693.967,-782.468 C688.687,-777.188 688.687,-768.638 693.967,-763.357 Z " fill="#00b4ce" fill-opacity="1.00" />				<path d="M655.721,-763.357 C661.001,-758.077 669.551,-758.077 674.832,-763.357 C680.112,-768.638 680.112,-777.188 674.832,-782.468 C669.551,-787.749 661.001,-787.749 655.721,-782.468 C650.44,-777.188 650.44,-768.638 655.721,-763.357 Z " fill="#00b4ce" fill-opacity="1.00" />				<path d="M545.03,451.627 L-631.464,451.627 L-774.921,733.776 L696.508,733.776 L545.03,451.627 Z " fill="#00b4ce" fill-opacity="1.00" />				<path d="M-774.921,800.333 L696.6,800.333 L696.6,733.776 L-774.921,733.776 L-774.921,800.333 Z " fill="#008c9f" fill-opacity="1.00" />				<path d="M519.665,-268.541 L-601.536,-268.541 L-601.536,401.27 L519.665,401.27 L519.665,-268.541 Z " fill="#343838" fill-opacity="1.00" stroke-width="56.81" stroke="#00b4ce" stroke-linecap="square" stroke-linejoin="miter" />				<path d="M-394.849,92.0388 L-314.221,11.7636 L-367.679,11.7637 L-448.307,92.0388 L-372.266,168.08 L-318.808,168.08 L-394.849,92.0388 Z " fill="#00b4ce" fill-opacity="1.00" />				<path d="M320.401,87.8044 L239.773,168.08 L293.231,168.08 L373.859,87.8044 L297.818,11.7636 L244.36,11.7636 L320.401,87.8044 Z " fill="#00b4ce" fill-opacity="1.00" />				<path d="M-262.259,201.247 C-243.125,164.189 -204.758,89.972 -147.157,-21.4042 C-155.817,-21.4042 -173.138,-21.4042 -199.119,-21.4042 C-218.252,15.6541 -256.619,89.8713 -314.221,201.247 C-305.561,201.247 -288.24,201.247 -262.259,201.247 Z M31.0854,89.7705 C31.0854,83.7284 28.9707,78.4919 24.7412,74.0611 C20.3103,69.8316 15.0738,67.7169 9.03172,67.7169 C3.39242,67.7169 -0.837051,67.7169 -3.6567,67.7169 C14.8724,28.0404 28.7693,-1.66665 38.0338,-21.4042 C15.678,-21.4042 -1.03846,-21.4042 -12.1157,-21.4042 C-28.2279,18.0709 -40.3121,47.7779 -48.3683,67.7169 C-52.5977,67.7169 -55.8202,67.7169 -58.0356,67.7169 C-58.0356,28.0404 -58.0356,-1.66664 -58.0356,-21.4042 C-77.7732,-21.4042 -92.5763,-21.4042 -102.445,-21.4042 C-102.445,28.1411 -102.445,71.4428 -102.445,108.501 C-102.445,145.559 -102.445,176.475 -102.445,201.247 C-82.7076,201.247 -67.9044,201.247 -58.0356,201.247 C-58.0356,161.571 -58.0356,131.864 -58.0356,112.126 C-38.0967,112.126 -23.1928,112.126 -13.3241,112.126 C-13.3241,151.803 -13.3241,181.51 -13.3241,201.247 C6.41349,201.247 21.2166,201.247 31.0854,201.247 C31.0854,151.702 31.0854,114.543 31.0854,89.7705 Z M194.222,89.7705 C200.264,89.7705 205.501,87.6558 209.932,83.4263 C214.161,78.9954 216.276,73.7589 216.276,67.7168 C216.276,37.9091 216.276,15.5533 216.276,0.649472 C216.276,-5.39263 214.161,-10.6291 209.932,-15.06 C205.501,-19.2895 200.264,-21.4042 194.222,-21.4042 C164.414,-21.4042 142.059,-21.4042 127.155,-21.4042 C107.417,-21.4042 92.6142,-21.4042 82.7454,-21.4042 C82.7454,-1.66665 82.7454,15.654 82.7454,30.5579 C82.7454,45.4618 82.7454,57.8481 82.7454,67.7168 C82.7454,87.4544 82.7454,102.258 82.7454,112.126 C82.7454,151.803 82.7454,181.51 82.7454,201.247 C102.483,201.247 117.286,201.247 127.155,201.247 C127.155,161.571 127.155,131.864 127.155,112.126 C147.094,112.126 161.998,112.126 171.866,112.126 C171.866,151.803 171.866,181.51 171.866,201.247 C191.604,201.247 206.407,201.247 216.276,201.247 C216.276,161.571 216.276,131.864 216.276,112.126 C216.276,105.883 214.161,100.646 209.932,96.4168 C205.501,91.986 200.264,89.7705 194.222,89.7705 Z M171.866,67.7168 C152.129,67.7168 137.225,67.7168 127.155,67.7168 C127.155,47.7779 127.155,32.874 127.155,23.0053 C147.094,23.0053 161.998,23.0053 171.866,23.0053 C171.866,39.3189 171.866,51.6046 171.866,59.8621 C171.866,63.286 171.866,65.9042 171.866,67.7168 Z " fill="#00b4ce" fill-opacity="1.00" />				<path d="M172.916,571.28 L-251.237,571.28 L-304.409,703.293 L226.088,703.293 L172.916,571.28 Z " fill="#008c9f" fill-opacity="1.00" />			</g>		</g>	</svg>