<?xml version="1.0" encoding="utf-8" ?>	<!-- Generator: Assembly 1.8 - http://assemblyapp.co -->	<svg version="1.1" xmlns="http://www.w3.org/2000/svg" xmlns:xlink="http://www.w3.org/1999/xlink" width="2048.00" height="2048.00" viewBox="0 0 2048.0 2048.0">		<g id="document" transform="matrix(1,0,0,1,1024.0,1024.0)">			<path d="M556.724,627.349 L556.724,-734.408 L-517,-734.408 L-517,627.349 L556.724,627.349 Z " fill="#00dffe" fill-opacity="1.00" />			<path d="M608.13,678.755 L608.13,-683.002 L-465.594,-683.002 L-465.594,678.755 L608.13,678.755 Z " fill="#00b4ce" fill-opacity="1.00" />			<path d="M659.535,734.408 L659.535,-361.984 L434.62,-402.434 L394.049,-627.349 L-414.189,-627.349 L-414.189,734.408 L659.535,734.408 Z " fill="#005f6c" fill-opacity="1.00" />			<path d="M-321.898,-223.313 L567.245,-223.313 L567.245,-267.51 L-321.898,-267.51 L-321.898,-223.313 Z " fill="#00b4ce" fill-opacity="1.00" />			<path d="M-321.898,19.975 L567.245,19.975 L567.245,-24.2222 L-321.898,-24.2222 L-321.898,19.975 Z " fill="#00b4ce" fill-opacity="1.00" />			<path d="M-321.898,-40.847 L567.245,-40.847 L567.245,-85.0442 L-321.898,-85.0442 L-321.898,-40.847 Z " fill="#00b4ce" fill-opacity="1.00" />			<path d="M-321.898,-162.491 L567.245,-162.491 L567.245,-206.688 L-321.898,-206.688 L-321.898,-162.491 Z " fill="#00b4ce" fill-opacity="1.00" />			<path d="M-321.898,-101.669 L567.245,-101.669 L567.245,-145.866 L-321.898,-145.866 L-321.898,-101.669 Z " fill="#00b4ce" fill-opacity="1.00" />			<path d="M-321.898,275.803 L567.245,275.803 L567.245,231.606 L-321.898,231.606 L-321.898,275.803 Z " fill="#00b4ce" fill-opacity="1.00" />			<path d="M-321.898,519.091 L567.245,519.091 L567.245,474.894 L-321.898,474.894 L-321.898,519.091 Z " fill="#00b4ce" fill-opacity="1.00" />			<path d="M-321.898,458.269 L567.245,458.269 L567.245,414.072 L-321.898,414.072 L-321.898,458.269 Z " fill="#00b4ce" fill-opacity="1.00" />			<path d="M-321.898,336.625 L567.245,336.625 L567.245,292.428 L-321.898,292.428 L-321.898,336.625 Z " fill="#00b4ce" fill-opacity="1.00" />			<path d="M-321.898,397.447 L567.245,397.447 L567.245,353.25 L-321.898,353.25 L-321.898,397.447 Z " fill="#00b4ce" fill-opacity="1.00" />			<path d="M-238.675,-435.461 C-238.675,-439.227 -239.993,-442.491 -242.629,-445.253 C-245.39,-447.889 -248.654,-449.207 -252.42,-449.207 C-255.934,-449.207 -258.571,-449.207 -260.328,-449.207 C-248.78,-473.935 -240.118,-492.45 -234.344,-504.752 C-248.277,-504.752 -258.696,-504.752 -265.6,-504.752 C-275.642,-480.149 -283.174,-461.634 -288.195,-449.207 C-290.831,-449.207 -292.839,-449.207 -294.22,-449.207 C-294.22,-473.935 -294.22,-492.45 -294.22,-504.752 C-306.521,-504.752 -315.748,-504.752 -321.898,-504.752 C-321.898,-473.872 -321.898,-446.884 -321.898,-423.788 C-321.898,-400.691 -321.898,-381.423 -321.898,-365.983 C-309.597,-365.983 -300.371,-365.983 -294.22,-365.983 C-294.22,-390.711 -294.22,-409.227 -294.22,-421.528 C-281.793,-421.528 -272.504,-421.528 -266.353,-421.528 C-266.353,-396.799 -266.353,-378.284 -266.353,-365.983 C-254.052,-365.983 -244.825,-365.983 -238.675,-365.983 C-238.675,-396.862 -238.675,-420.022 -238.675,-435.461 Z M-123.253,-365.983 C-123.253,-421.465 -123.253,-463.14 -123.253,-491.007 C-123.253,-494.773 -124.572,-498.036 -127.208,-500.798 C-129.969,-503.434 -133.233,-504.752 -136.999,-504.752 C-161.727,-504.752 -180.242,-504.752 -192.544,-504.752 C-196.435,-504.752 -199.699,-503.434 -202.335,-500.798 C-205.096,-498.036 -206.477,-494.773 -206.477,-491.007 C-206.477,-473.684 -206.477,-458.496 -206.477,-445.441 C-206.477,-432.512 -206.477,-421.716 -206.477,-413.055 C-206.477,-392.092 -206.477,-376.401 -206.477,-365.983 C-194.176,-365.983 -184.95,-365.983 -178.799,-365.983 C-178.799,-390.711 -178.799,-409.227 -178.799,-421.528 C-166.372,-421.528 -157.083,-421.528 -150.932,-421.528 C-150.932,-396.799 -150.932,-378.284 -150.932,-365.983 C-138.63,-365.983 -129.404,-365.983 -123.253,-365.983 Z M-150.932,-449.207 C-163.234,-449.207 -172.522,-449.207 -178.799,-449.207 C-178.799,-461.634 -178.799,-470.923 -178.799,-477.073 C-166.372,-477.073 -157.083,-477.073 -150.932,-477.073 C-150.932,-466.906 -150.932,-459.249 -150.932,-454.102 C-150.932,-451.968 -150.932,-450.336 -150.932,-449.207 Z M-25.9081,-435.461 C-22.1423,-435.461 -18.8786,-436.78 -16.117,-439.416 C-13.481,-442.177 -12.163,-445.441 -12.163,-449.207 C-12.163,-467.784 -12.163,-481.718 -12.163,-491.007 C-12.163,-494.773 -13.481,-498.036 -16.117,-500.798 C-18.8786,-503.434 -22.1423,-504.752 -25.9081,-504.752 C-44.4859,-504.752 -58.4193,-504.752 -67.7082,-504.752 C-80.0098,-504.752 -89.2359,-504.752 -95.3867,-504.752 C-95.3867,-492.45 -95.3867,-481.655 -95.3867,-472.366 C-95.3867,-463.077 -95.3867,-455.357 -95.3867,-449.207 C-95.3867,-436.905 -95.3867,-427.679 -95.3867,-421.528 C-95.3867,-396.799 -95.3867,-378.284 -95.3867,-365.983 C-83.0852,-365.983 -73.859,-365.983 -67.7082,-365.983 C-67.7082,-390.711 -67.7082,-409.227 -67.7082,-421.528 C-55.2812,-421.528 -45.9922,-421.528 -39.8415,-421.528 C-39.8415,-396.799 -39.8415,-378.284 -39.8415,-365.983 C-27.5399,-365.983 -18.3137,-365.983 -12.163,-365.983 C-12.163,-390.711 -12.163,-409.227 -12.163,-421.528 C-12.163,-425.419 -13.481,-428.683 -16.117,-431.319 C-18.8786,-434.081 -22.1423,-435.461 -25.9081,-435.461 Z M-39.8415,-449.207 C-52.143,-449.207 -61.4319,-449.207 -67.7082,-449.207 C-67.7082,-461.634 -67.7082,-470.923 -67.7082,-477.073 C-55.2812,-477.073 -45.9922,-477.073 -39.8415,-477.073 C-39.8415,-466.906 -39.8415,-459.249 -39.8415,-454.102 C-39.8415,-451.968 -39.8415,-450.336 -39.8415,-449.207 Z M43.3823,-393.661 C43.3823,-412.239 43.3823,-449.269 43.3823,-504.752 C38.8634,-504.752 29.6372,-504.752 15.7038,-504.752 C15.7038,-493.203 15.7038,-475.881 15.7038,-452.784 C15.7038,-429.687 15.7038,-400.754 15.7038,-365.983 C16.8335,-365.983 19.1558,-365.983 22.6705,-365.983 C26.1852,-365.983 33.0892,-365.983 43.3823,-365.983 C52.6712,-365.983 71.1863,-365.983 98.9275,-365.983 C98.9275,-370.627 98.9275,-379.853 98.9275,-393.661 C86.626,-393.661 68.1109,-393.661 43.3823,-393.661 Z " fill="#00b4ce" fill-opacity="1.00" />			<path d="M-771.222,-672.41 L-409.856,109.696 L-368.271,90.4816 L-729.637,-691.624 L-771.222,-672.41 Z " fill="#00b4ce" fill-opacity="1.00" />			<path d="M-729.637,-691.624 L-368.271,90.4816 L-326.687,71.2678 L-688.052,-710.838 L-729.637,-691.624 Z " fill="#008c9f" fill-opacity="1.00" />			<path d="M-410.434,109.963 L-321.898,191.912 L-326.687,71.2678 L-410.434,109.963 Z " fill="#008c9f" fill-opacity="1.00" />			<path d="M393.968,-627.448 L393.968,-361.831 L659.585,-361.831 L393.968,-627.448 Z " fill="#00dffe" fill-opacity="1.00" />		</g>	</svg>