<?xml version="1.0" encoding="utf-8" ?>	<!-- Generator: Assembly 1.8 - http://assemblyapp.co -->	<svg version="1.1" xmlns="http://www.w3.org/2000/svg" xmlns:xlink="http://www.w3.org/1999/xlink" width="2048.00" height="2048.00" viewBox="0 0 2048.0 2048.0">			<g id="document" transform="matrix(1,0,0,1,1024.0,1024.0)">			<g>				<path d="M-640.442,583.052 L419.22,583.052 L419.22,7.06902 L-640.442,7.06904 L-640.442,583.052 Z " fill="#343838" fill-opacity="1.00" />				<path d="M864.004,-257.665 L286.469,-591.105 C246.763,-614.029 196.243,-599.881 173.319,-560.176 L-77.4827,-127.442 C-100.407,-87.7362 -86.6764,-36.4939 -46.9709,-13.5699 L530.564,319.87 C570.269,342.794 621.512,329.063 644.436,289.358 L894.515,-143.793 C917.439,-183.499 903.709,-234.741 864.004,-257.665 Z M780.644,-113.281 L387.676,-99.5214 L203.109,-446.721 L244.789,-518.913 L429.356,-171.713 L822.324,-185.473 L780.644,-113.281 Z " fill="#005f6c" fill-opacity="1.00" />				<path d="M-501.837,-38.7617 C-434.802,77.3454 -339.281,70.9482 -261.021,25.7647 L-49.9752,-96.0825 C44.3218,-150.525 76.1297,-228.76 6.50271,-349.358 L-146.084,-613.646 C-221.637,-744.507 -328.163,-733.467 -401.932,-690.876 L-457.099,-659.025 C-538.296,-613.002 -624.002,-548.124 -651.089,-523.932 L-607.757,-448.879 L-348.601,-598.503 C-309.471,-621.095 -266.974,-609.708 -238.457,-560.314 L-85.8698,-296.026 C-60.6856,-252.406 -57.4906,-215.762 -110.092,-185.393 L-314.722,-67.2493 C-340.381,-52.435 -383.539,-47.1897 -416.871,-104.923 L-505.016,-257.594 C-534.645,-308.912 -508.84,-332.363 -478.049,-350.14 L-363.867,-416.064 C-343.981,-427.545 -333.79,-429.152 -321.568,-407.983 C-320.556,-407.712 -315.643,-397.72 -315.643,-397.72 C-315.272,-397.078 -357.98,-373.276 -381.715,-359.573 C-445.862,-322.537 -467.043,-271.82 -430.748,-208.955 L-418.527,-187.786 C-393.342,-144.166 -342.274,-106.082 -281.975,-140.895 C-223.601,-174.598 -219.35,-230.936 -218.067,-231.677 L-182.672,-205.925 L-106.978,-249.627 L-233.64,-469.012 C-292.156,-570.365 -358.824,-542.139 -420.405,-506.584 L-531.381,-442.513 C-644.281,-377.33 -647.757,-291.503 -601.092,-210.677 L-501.837,-38.7617 Z M-329.739,-262.141 C-330.751,-262.412 -334.454,-268.827 -334.183,-269.839 C-343.072,-285.234 -338.41,-290.492 -325.679,-299.552 L-277.866,-332.289 L-261.941,-304.706 C-259.169,-280.647 -277.574,-266.6 -296.177,-255.859 C-313.496,-245.86 -321.961,-248.67 -329.739,-262.141 Z " fill="#008c9f" fill-opacity="1.00" />				<path d="M391.061,0.541911 L-194.311,0.541928 L-194.311,-8.12106 C-194.311,-69.9997 -245.052,-120.74 -306.93,-120.74 L-621.273,-120.74 C-683.152,-120.74 -733.892,-69.9997 -733.892,-8.12105 L-733.892,670.068 C-733.892,731.947 -683.152,782.687 -621.273,782.687 L-405.936,782.687 L-405.936,707.196 C-417.074,698.533 -424.499,684.919 -424.499,670.068 C-424.499,642.842 -403.461,621.803 -376.234,621.803 C-349.008,621.803 -327.969,642.842 -327.969,670.068 C-327.969,684.919 -335.394,698.533 -346.532,707.196 L-346.532,782.687 L136.121,782.687 L136.121,707.196 C124.983,698.533 117.557,684.919 117.557,670.068 C117.557,642.842 138.596,621.803 165.822,621.803 C193.049,621.803 214.088,642.842 214.088,670.068 C214.088,684.919 206.662,698.533 195.524,707.196 L195.524,782.687 L388.585,782.687 C450.464,782.687 501.204,731.947 501.204,670.068 L501.204,111.923 C503.68,50.0448 452.939,0.54191 391.061,0.541911 Z M341.558,517.847 L-174.51,517.847 C-191.836,517.847 -204.212,504.234 -204.212,488.145 C-204.212,470.819 -190.598,458.444 -174.51,458.444 L341.558,458.444 C358.884,458.444 372.497,472.057 372.497,488.145 C372.497,504.234 358.884,517.847 341.558,517.847 Z M-206.687,355.725 C-206.687,338.399 -193.073,326.023 -176.985,326.023 L337.845,326.023 C355.171,326.023 367.547,339.637 367.547,355.725 C367.547,373.051 353.933,385.427 337.845,385.427 L-176.985,385.427 C-193.073,385.427 -206.687,371.814 -206.687,355.725 Z " fill="#00b4ce" fill-opacity="1.00" />				<path d="M-118.435,206.6 C-118.435,203.927 -119.371,201.609 -121.243,199.649 C-123.203,197.777 -125.521,196.841 -128.194,196.841 C-130.69,196.841 -132.561,196.841 -133.809,196.841 C-125.61,179.284 -119.46,166.138 -115.361,157.404 C-125.253,157.404 -132.65,157.404 -137.552,157.404 C-144.682,174.872 -150.029,188.018 -153.594,196.841 C-155.466,196.841 -156.892,196.841 -157.872,196.841 C-157.872,179.284 -157.872,166.138 -157.872,157.404 C-166.606,157.404 -173.157,157.404 -177.524,157.404 C-177.524,179.329 -177.524,198.49 -177.524,214.889 C-177.524,231.287 -177.524,244.968 -177.524,255.93 C-168.79,255.93 -162.239,255.93 -157.872,255.93 C-157.872,238.373 -157.872,225.227 -157.872,216.493 C-149.049,216.493 -142.454,216.493 -138.087,216.493 C-138.087,234.05 -138.087,247.196 -138.087,255.93 C-129.353,255.93 -122.802,255.93 -118.435,255.93 C-118.435,234.006 -118.435,217.562 -118.435,206.6 Z M-36.4865,255.93 C-36.4865,216.537 -36.4865,186.949 -36.4865,167.163 C-36.4865,164.49 -37.4223,162.172 -39.2939,160.212 C-41.2546,158.34 -43.5718,157.404 -46.2455,157.404 C-63.8028,157.404 -76.9485,157.404 -85.6825,157.404 C-88.4454,157.404 -90.7626,158.34 -92.6341,160.212 C-94.5949,162.172 -95.5752,164.49 -95.5752,167.163 C-95.5752,179.462 -95.5752,190.246 -95.5752,199.515 C-95.5752,208.695 -95.5752,216.359 -95.5752,222.509 C-95.5752,237.392 -95.5752,248.533 -95.5752,255.93 C-86.8411,255.93 -80.2906,255.93 -75.9235,255.93 C-75.9235,238.373 -75.9235,225.227 -75.9235,216.493 C-67.1004,216.493 -60.5052,216.493 -56.1382,216.493 C-56.1382,234.05 -56.1382,247.196 -56.1382,255.93 C-47.4041,255.93 -40.8536,255.93 -36.4865,255.93 Z M-56.1382,196.841 C-64.8723,196.841 -71.4674,196.841 -75.9235,196.841 C-75.9235,188.018 -75.9235,181.423 -75.9235,177.056 C-67.1004,177.056 -60.5052,177.056 -56.1382,177.056 C-56.1382,184.275 -56.1382,189.711 -56.1382,193.365 C-56.1382,194.881 -56.1382,196.039 -56.1382,196.841 Z M32.6285,206.6 C35.3022,206.6 37.6194,205.664 39.5801,203.793 C41.4517,201.832 42.3875,199.515 42.3875,196.841 C42.3875,183.651 42.3875,173.758 42.3875,167.163 C42.3875,164.49 41.4517,162.172 39.5801,160.212 C37.6194,158.34 35.3022,157.404 32.6285,157.404 C19.4382,157.404 9.54558,157.404 2.95046,157.404 C-5.78361,157.404 -12.3342,157.404 -16.7012,157.404 C-16.7012,166.138 -16.7012,173.803 -16.7012,180.398 C-16.7012,186.993 -16.7012,192.474 -16.7012,196.841 C-16.7012,205.575 -16.7012,212.126 -16.7012,216.493 C-16.7012,234.05 -16.7012,247.196 -16.7012,255.93 C-7.96712,255.93 -1.41657,255.93 2.95046,255.93 C2.95046,238.373 2.95046,225.227 2.95046,216.493 C11.7737,216.493 18.3688,216.493 22.7358,216.493 C22.7358,234.05 22.7358,247.196 22.7358,255.93 C31.4699,255.93 38.0204,255.93 42.3875,255.93 C42.3875,238.373 42.3875,225.227 42.3875,216.493 C42.3875,213.73 41.4517,211.413 39.5801,209.541 C37.6194,207.581 35.3022,206.6 32.6285,206.6 Z M22.7358,196.841 C14.0017,196.841 7.40662,196.841 2.95046,196.841 C2.95046,188.018 2.95046,181.423 2.95046,177.056 C11.7737,177.056 18.3688,177.056 22.7358,177.056 C22.7358,184.275 22.7358,189.711 22.7358,193.365 C22.7358,194.881 22.7358,196.039 22.7358,196.841 Z M81.8245,236.278 C81.8245,223.088 81.8245,196.797 81.8245,157.404 C78.616,157.404 72.0655,157.404 62.1728,157.404 C62.1728,165.604 62.1728,177.903 62.1728,194.301 C62.1728,210.7 62.1728,231.243 62.1728,255.93 C62.9749,255.93 64.6237,255.93 67.1191,255.93 C69.6146,255.93 74.5164,255.93 81.8245,255.93 C88.4196,255.93 101.565,255.93 121.261,255.93 C121.261,252.632 121.261,246.082 121.261,236.278 C112.527,236.278 99.3817,236.278 81.8245,236.278 Z " fill="#343838" fill-opacity="1.00" />				<path d="M-567.713,512.673 L-567.713,513.594 L-567.713,513.594 L-567.713,531.14 L-545.304,531.14 L-545.304,531.14 L-545.304,531.14 L-540.878,531.14 L-346.835,531.14 L-346.835,512.692 L-346.835,512.692 C-341.996,513.893 -336.809,513.959 -331.656,512.662 C-314.863,508.434 -304.605,491.27 -308.833,474.477 L-331.837,383.121 C-335.67,367.897 -350.135,358.043 -365.317,359.486 C-375.042,344.898 -388.148,332.759 -403.519,324.186 L-403.519,324.186 C-380.917,312.053 -362.97,292.234 -352.274,267.375 C-339.181,266.349 -328.912,254.283 -328.912,239.393 C-328.912,229.628 -333.322,220.791 -340.378,215.753 C-314.476,155.674 -360.49,64.4894 -422.2,64.4894 C-457.813,64.4894 -472.771,70.7452 -482.613,82.9216 L-482.613,82.9216 C-489.833,70.8787 -503.28,59.7737 -525.983,56.0155 C-525.983,56.0155 -512.262,66.9601 -508.668,79.8649 C-511.118,79.3749 -513.895,79.0482 -516.836,78.7215 C-571.45,75.1731 -604.115,157.226 -574.824,216.032 C-581.497,221.308 -585.636,229.697 -585.636,239.393 C-585.636,254.283 -575.367,266.862 -562.274,267.632 C-551.571,292.354 -533.698,312.12 -511.099,324.225 C-526.433,332.793 -539.509,344.91 -549.219,359.468 L-549.219,359.468 C-564.405,358.018 -578.876,367.873 -582.711,383.101 L-605.715,474.458 C-609.943,491.25 -599.684,508.414 -582.892,512.643 C-577.739,513.94 -572.551,513.873 -567.713,512.673 L-567.713,512.673 Z " fill="#343838" fill-opacity="1.00" />			</g>		</g>	</svg>